<?xml version="1.0" encoding="utf-8"?>
<svg width="128" height="128" viewBox="0 0 128 128" xmlns="http://www.w3.org/2000/svg">
  <defs>
    <linearGradient id="pageGradient" x1="0%" y1="0%" x2="0%" y2="100%">
      <stop offset="0" style="stop-color:#ffffff;stop-opacity:1"/>
      <stop offset="1" style="stop-color:#f5f5f5;stop-opacity:1"/>
    </linearGradient>
    <filter id="shadow" x="-50%" y="-50%" width="200%" height="200%">
      <feGaussianBlur in="SourceAlpha" stdDeviation="3"/>
      <feOffset dx="0" dy="4" result="offsetblur"/>
      <feComponentTransfer>
        <feFuncA type="linear" slope="0.3"/>
      </feComponentTransfer>
      <feMerge>
        <feMergeNode/>
        <feMergeNode in="SourceGraphic"/>
      </feMerge>
    </filter>
  </defs>
  <rect x="16" y="16" width="96" height="96" rx="20" ry="20" fill="url(#pageGradient)" stroke="#d0d0d0" stroke-width="1.5" filter="url(#shadow)"/>
  <rect x="16" y="16" width="96" height="28" rx="20" ry="20" style="fill: rgb(94, 214, 207);"/>
  <rect x="16" y="32" width="96" height="12" style="fill: rgb(94, 214, 207);"/>
  <circle cx="38" cy="20" r="3.5" fill="none" stroke="#ffffff" stroke-width="2"/>
  <circle cx="64" cy="20" r="3.5" fill="none" stroke="#ffffff" stroke-width="2"/>
  <circle cx="90" cy="20" r="3.5" fill="none" stroke="#ffffff" stroke-width="2"/>
  <path d="M 42.748 59.236 Q 43.042 48.904 52.576 48.904 Q 56.818 48.904 59.464 51.34 Q 62.11 53.776 62.11 57.64 Q 62.11 63.184 55.81 66.628 L 51.61 68.896 Q 48.88 70.366 47.704 71.752 Q 46.528 73.138 46.234 75.028 L 61.9 75.028 L 61.9 78.682 L 42.076 78.682 Q 42.328 73.768 44.05 71.101 Q 45.772 68.434 50.434 65.788 L 54.298 63.604 Q 58.33 61.294 58.33 57.724 Q 58.33 55.33 56.65 53.734 Q 54.97 52.138 52.45 52.138 Q 46.864 52.138 46.444 59.236 Z M 80.421 63.016 Q 85.545 65.452 85.545 70.45 Q 85.545 74.524 82.752 77.086 Q 79.959 79.648 75.549 79.648 Q 71.139 79.648 68.346 77.065 Q 65.553 74.482 65.553 70.408 Q 65.553 65.452 70.635 63.016 Q 68.367 61.588 67.485 60.244 Q 66.603 58.9 66.603 56.842 Q 66.603 53.356 69.102 51.13 Q 71.601 48.904 75.549 48.904 Q 79.497 48.904 81.996 51.13 Q 84.495 53.356 84.495 56.842 Q 84.495 58.942 83.613 60.286 Q 82.731 61.63 80.421 63.016 Z M 79.308 53.461 Q 79.308 53.461 78.605 52.82 Q 77.901 52.18 75.549 52.18 Q 73.197 52.18 71.79 53.461 Q 70.383 54.742 70.383 56.884 Q 70.383 58.984 71.79 60.265 Q 73.197 61.546 75.549 61.546 Q 77.859 61.546 79.287 60.286 Q 80.715 59.026 80.715 56.926 Q 80.715 54.742 79.308 53.461 Z M 80.043 66.271 Q 80.043 66.271 79.182 65.462 Q 78.321 64.654 75.549 64.654 Q 72.777 64.654 71.055 66.271 Q 69.333 67.888 69.333 70.492 Q 69.333 73.096 71.034 74.734 Q 72.735 76.372 75.465 76.372 Q 78.279 76.372 80.022 74.755 Q 81.765 73.138 81.765 70.492 Q 81.765 67.888 80.043 66.271 Z" style="fill: rgb(51, 51, 51); text-wrap-mode: nowrap;"/>
  <g opacity="0.15">
    <circle cx="35" cy="92" r="1.5" fill="#333333"/>
    <circle cx="50" cy="92" r="1.5" fill="#333333"/>
    <circle cx="64" cy="92" r="1.5" fill="#333333"/>
    <circle cx="78" cy="92" r="1.5" fill="#333333"/>
    <circle cx="93" cy="92" r="1.5" fill="#333333"/>
    <circle cx="35" cy="102" r="1.5" fill="#333333"/>
    <circle cx="50" cy="102" r="1.5" fill="#333333"/>
    <circle cx="64" cy="102" r="1.5" fill="#333333"/>
    <circle cx="78" cy="102" r="1.5" fill="#333333"/>
    <circle cx="93" cy="102" r="1.5" fill="#333333"/>
  </g>
  <text style="white-space: pre; fill: rgb(51, 51, 51); font-family: Arial, sans-serif; font-size: 28px;" x="140.056" y="66.108"> </text>
</svg>